<svg xmlns="http://www.w3.org/2000/svg" width="900" height="560" viewBox="0 0 900 560" role="img" aria-label="Qualified campaign arrival-to-terminal flow"><rect width="100%" height="100%" fill="white"/><g font-family="Inter,Arial,sans-serif" fill="#17202a"><text x="24" y="28" font-size="17" font-weight="700">Qualified campaign arrival-to-terminal flow</text><text x="24" y="48" font-size="10" fill="#667085">repetition 0 · linear measured wall time · 20 logical lanes · physical intervals only</text><line x1="72.0" y1="58" x2="72.0" y2="532" stroke="#e4e7ec"/><text x="72.0" y="66" text-anchor="middle" font-size="8" fill="#667085">0.0 s</text><line x1="474.0" y1="58" x2="474.0" y2="532" stroke="#e4e7ec"/><text x="474.0" y="66" text-anchor="middle" font-size="8" fill="#667085">14.8 s</text><line x1="876.0" y1="58" x2="876.0" y2="532" stroke="#e4e7ec"/><text x="876.0" y="66" text-anchor="middle" font-size="8" fill="#667085">29.6 s</text><text x="24" y="75.0" font-size="9" font-weight="700">P01</text><line x1="72.0" y1="72.0" x2="876.0" y2="72.0" stroke="#f2f4f7"/><circle cx="72.0" cy="72.0" r="2" fill="#d9a514"/><rect x="72.0" y="68.5" width="156.6" height="7" rx="2" fill="#287d8e"/><circle cx="228.6" cy="72.0" r="3" fill="white" stroke="#168b5b" stroke-width="1.5"/><text x="24" y="97.0" font-size="9" font-weight="700">P02</text><line x1="72.0" y1="94.0" x2="876.0" y2="94.0" stroke="#f2f4f7"/><circle cx="72.1" cy="94.0" r="2" fill="#d9a514"/><rect x="548.8" y="90.5" width="159.5" height="7" rx="2" fill="#287d8e"/><circle cx="708.3" cy="94.0" r="3" fill="white" stroke="#168b5b" stroke-width="1.5"/><text x="24" y="119.0" font-size="9" font-weight="700">P03</text><line x1="72.0" y1="116.0" x2="876.0" y2="116.0" stroke="#f2f4f7"/><circle cx="72.1" cy="116.0" r="2" fill="#d9a514"/><rect x="548.8" y="112.5" width="158.9" height="7" rx="2" fill="#287d8e"/><circle cx="707.8" cy="116.0" r="3" fill="white" stroke="#168b5b" stroke-width="1.5"/><text x="24" y="141.0" font-size="9" font-weight="700">P04</text><line x1="72.0" y1="138.0" x2="876.0" y2="138.0" stroke="#f2f4f7"/><circle cx="72.2" cy="138.0" r="2" fill="#d9a514"/><rect x="228.1" y="133.5" width="2" height="9" fill="#667eea"/><rect x="706.6" y="134.5" width="158.3" height="7" rx="2" fill="#287d8e"/><rect x="863.9" y="133.5" width="2" height="9" fill="#667eea"/><circle cx="864.9" cy="138.0" r="3" fill="white" stroke="#c98900" stroke-width="1.5"/><text x="24" y="163.0" font-size="9" font-weight="700">P05</text><line x1="72.0" y1="160.0" x2="876.0" y2="160.0" stroke="#f2f4f7"/><circle cx="72.3" cy="160.0" r="2" fill="#d9a514"/><rect x="72.4" y="156.5" width="154.5" height="7" rx="2" fill="#287d8e"/><rect x="226.3" y="155.5" width="2" height="9" fill="#667eea"/><circle cx="227.3" cy="160.0" r="3" fill="white" stroke="#168b5b" stroke-width="1.5"/><text x="24" y="185.0" font-size="9" font-weight="700">P06</text><line x1="72.0" y1="182.0" x2="876.0" y2="182.0" stroke="#f2f4f7"/><circle cx="72.3" cy="182.0" r="2" fill="#d9a514"/><rect x="226.3" y="177.5" width="2" height="9" fill="#667eea"/><circle cx="227.3" cy="182.0" r="3" fill="white" stroke="#168b5b" stroke-width="1.5"/><text x="24" y="207.0" font-size="9" font-weight="700">P07</text><line x1="72.0" y1="204.0" x2="876.0" y2="204.0" stroke="#f2f4f7"/><circle cx="72.3" cy="204.0" r="2" fill="#d9a514"/><rect x="72.5" y="200.5" width="154.6" height="7" rx="2" fill="#287d8e"/><rect x="227.1" y="199.5" width="2" height="9" fill="#667eea"/><circle cx="228.1" cy="204.0" r="3" fill="white" stroke="#168b5b" stroke-width="1.5"/><text x="24" y="229.0" font-size="9" font-weight="700">P08</text><line x1="72.0" y1="226.0" x2="876.0" y2="226.0" stroke="#f2f4f7"/><circle cx="72.3" cy="226.0" r="2" fill="#d9a514"/><rect x="226.9" y="222.5" width="157.3" height="7" rx="2" fill="#287d8e"/><rect x="383.5" y="221.5" width="2" height="9" fill="#667eea"/><circle cx="384.5" cy="226.0" r="3" fill="white" stroke="#168b5b" stroke-width="1.5"/><text x="24" y="251.0" font-size="9" font-weight="700">P09</text><line x1="72.0" y1="248.0" x2="876.0" y2="248.0" stroke="#f2f4f7"/><circle cx="72.4" cy="248.0" r="2" fill="#d9a514"/><rect x="227.1" y="244.5" width="156.4" height="7" rx="2" fill="#287d8e"/><rect x="383.0" y="243.5" width="2" height="9" fill="#667eea"/><circle cx="384.0" cy="248.0" r="3" fill="white" stroke="#168b5b" stroke-width="1.5"/><text x="24" y="273.0" font-size="9" font-weight="700">P10</text><line x1="72.0" y1="270.0" x2="876.0" y2="270.0" stroke="#f2f4f7"/><circle cx="72.5" cy="270.0" r="2" fill="#d9a514"/><rect x="72.0" y="265.5" width="2" height="9" fill="#667eea"/><rect x="383.4" y="266.5" width="164.7" height="7" rx="2" fill="#287d8e"/><rect x="547.5" y="265.5" width="2" height="9" fill="#667eea"/><rect x="864.6" y="266.5" width="1.0" height="7" rx="2" fill="#287d8e"/><rect x="864.0" y="265.5" width="2" height="9" fill="#667eea"/><circle cx="865.3" cy="270.0" r="3" fill="white" stroke="#168b5b" stroke-width="1.5"/><text x="24" y="295.0" font-size="9" font-weight="700">P11</text><line x1="72.0" y1="292.0" x2="876.0" y2="292.0" stroke="#f2f4f7"/><circle cx="72.5" cy="292.0" r="2" fill="#d9a514"/><rect x="72.5" y="287.5" width="2" height="9" fill="#667eea"/><rect x="384.1" y="288.5" width="164.7" height="7" rx="2" fill="#287d8e"/><rect x="548.6" y="287.5" width="2" height="9" fill="#667eea"/><rect x="864.1" y="287.5" width="2" height="9" fill="#667eea"/><circle cx="875.6" cy="292.0" r="3" fill="white" stroke="#168b5b" stroke-width="1.5"/><text x="24" y="317.0" font-size="9" font-weight="700">P12</text><line x1="72.0" y1="314.0" x2="876.0" y2="314.0" stroke="#f2f4f7"/><circle cx="72.5" cy="314.0" r="2" fill="#d9a514"/><rect x="73.0" y="309.5" width="2" height="9" fill="#667eea"/><rect x="384.9" y="310.5" width="163.9" height="7" rx="2" fill="#287d8e"/><rect x="548.3" y="309.5" width="2" height="9" fill="#667eea"/><rect x="864.6" y="310.5" width="1.0" height="7" rx="2" fill="#287d8e"/><rect x="864.6" y="309.5" width="2" height="9" fill="#667eea"/><circle cx="876.0" cy="314.0" r="3" fill="white" stroke="#168b5b" stroke-width="1.5"/><text x="24" y="339.0" font-size="9" font-weight="700">P13</text><line x1="72.0" y1="336.0" x2="876.0" y2="336.0" stroke="#f2f4f7"/><circle cx="72.7" cy="336.0" r="2" fill="#d9a514"/><rect x="228.6" y="332.5" width="156.3" height="7" rx="2" fill="#287d8e"/><rect x="383.9" y="331.5" width="2" height="9" fill="#667eea"/><circle cx="384.9" cy="336.0" r="3" fill="white" stroke="#168b5b" stroke-width="1.5"/><text x="24" y="361.0" font-size="9" font-weight="700">P14</text><line x1="72.0" y1="358.0" x2="876.0" y2="358.0" stroke="#f2f4f7"/><circle cx="72.7" cy="358.0" r="2" fill="#d9a514"/><rect x="383.9" y="353.5" width="2" height="9" fill="#667eea"/><rect x="707.8" y="354.5" width="156.8" height="7" rx="2" fill="#287d8e"/><circle cx="864.6" cy="358.0" r="3" fill="white" stroke="#168b5b" stroke-width="1.5"/><text x="24" y="383.0" font-size="9" font-weight="700">P15</text><line x1="72.0" y1="380.0" x2="876.0" y2="380.0" stroke="#f2f4f7"/><circle cx="72.7" cy="380.0" r="2" fill="#d9a514"/><rect x="383.9" y="375.5" width="2" height="9" fill="#667eea"/><rect x="383.9" y="375.5" width="2" height="9" fill="#667eea"/><rect x="708.3" y="376.5" width="158.3" height="7" rx="2" fill="#287d8e"/><circle cx="866.6" cy="380.0" r="3" fill="white" stroke="#168b5b" stroke-width="1.5"/><text x="24" y="405.0" font-size="9" font-weight="700">P16</text><line x1="72.0" y1="402.0" x2="876.0" y2="402.0" stroke="#f2f4f7"/><circle cx="72.8" cy="402.0" r="2" fill="#d9a514"/><circle cx="384.9" cy="402.0" r="3" fill="white" stroke="#c98900" stroke-width="1.5"/><text x="24" y="427.0" font-size="9" font-weight="700">P17</text><line x1="72.0" y1="424.0" x2="876.0" y2="424.0" stroke="#f2f4f7"/><circle cx="72.9" cy="424.0" r="2" fill="#d9a514"/><rect x="73.9" y="419.5" width="2" height="9" fill="#667eea"/><rect x="548.2" y="420.5" width="158.4" height="7" rx="2" fill="#287d8e"/><circle cx="706.6" cy="424.0" r="3" fill="white" stroke="#168b5b" stroke-width="1.5"/><text x="24" y="449.0" font-size="9" font-weight="700">P18</text><line x1="72.0" y1="446.0" x2="876.0" y2="446.0" stroke="#f2f4f7"/><circle cx="72.9" cy="446.0" r="2" fill="#d9a514"/><circle cx="74.4" cy="446.0" r="3" fill="white" stroke="#c98900" stroke-width="1.5"/><text x="24" y="471.0" font-size="9" font-weight="700">P19</text><line x1="72.0" y1="468.0" x2="876.0" y2="468.0" stroke="#f2f4f7"/><circle cx="72.9" cy="468.0" r="2" fill="#d9a514"/><circle cx="74.9" cy="468.0" r="3" fill="white" stroke="#c98900" stroke-width="1.5"/><text x="24" y="493.0" font-size="9" font-weight="700">P20</text><line x1="72.0" y1="490.0" x2="876.0" y2="490.0" stroke="#f2f4f7"/><circle cx="73.0" cy="490.0" r="2" fill="#d9a514"/><circle cx="707.2" cy="490.0" r="3" fill="white" stroke="#c98900" stroke-width="1.5"/><g transform="translate(24 542)" font-size="8" fill="#667085"><rect width="12" height="6" rx="2" fill="#287d8e"/><text x="18" y="6">physical Guest/verifier</text><rect x="144" width="3" height="8" fill="#667eea"/><text x="154" y="6">mechanism</text><circle cx="238" cy="3" r="3" fill="white" stroke="#168b5b"/><text x="246" y="6">terminal</text></g></g></svg>
