<svg xmlns="http://www.w3.org/2000/svg" width="720" height="330" viewBox="0 0 720 330" role="img" aria-labelledby="title desc"><title id="title">Paired physical execution counts</title><desc id="desc">Baseline and qualified physical execution counts for each paired repetition.</desc><rect width="720" height="330" fill="white"/><g font-family="Arial, Helvetica, sans-serif" fill="#172033"><text x="24" y="32" font-size="16" font-weight="700">Physical executions</text><text x="24" y="53" font-size="11" fill="#5b6472">Paired fixed campaign; lower is less physical work</text><line x1="120.0" y1="70" x2="120.0" y2="286" stroke="#e1e5ea"/><text x="120.0" y="310" text-anchor="middle" font-size="11">16</text><line x1="230.0" y1="70" x2="230.0" y2="286" stroke="#e1e5ea"/><text x="230.0" y="310" text-anchor="middle" font-size="11">17</text><line x1="340.0" y1="70" x2="340.0" y2="286" stroke="#e1e5ea"/><text x="340.0" y="310" text-anchor="middle" font-size="11">18</text><line x1="450.0" y1="70" x2="450.0" y2="286" stroke="#e1e5ea"/><text x="450.0" y="310" text-anchor="middle" font-size="11">19</text><line x1="560.0" y1="70" x2="560.0" y2="286" stroke="#e1e5ea"/><text x="560.0" y="310" text-anchor="middle" font-size="11">20</text><text x="24" y="92" font-size="11">rep 0</text><line x1="450.0" y1="88" x2="230.0" y2="88" stroke="#8892a0" stroke-width="2"/><circle cx="450.0" cy="88" r="5" fill="white" stroke="#6b7280" stroke-width="2"/><rect x="230.0" y="88" width="10" height="10" transform="translate(-5,-5)" fill="#287d8e"/><text x="24" y="132" font-size="11">rep 1</text><line x1="450.0" y1="128" x2="230.0" y2="128" stroke="#8892a0" stroke-width="2"/><circle cx="450.0" cy="128" r="5" fill="white" stroke="#6b7280" stroke-width="2"/><rect x="230.0" y="128" width="10" height="10" transform="translate(-5,-5)" fill="#287d8e"/><text x="24" y="172" font-size="11">rep 2</text><line x1="450.0" y1="168" x2="230.0" y2="168" stroke="#8892a0" stroke-width="2"/><circle cx="450.0" cy="168" r="5" fill="white" stroke="#6b7280" stroke-width="2"/><rect x="230.0" y="168" width="10" height="10" transform="translate(-5,-5)" fill="#287d8e"/><text x="24" y="212" font-size="11">rep 3</text><line x1="450.0" y1="208" x2="230.0" y2="208" stroke="#8892a0" stroke-width="2"/><circle cx="450.0" cy="208" r="5" fill="white" stroke="#6b7280" stroke-width="2"/><rect x="230.0" y="208" width="10" height="10" transform="translate(-5,-5)" fill="#287d8e"/><text x="24" y="252" font-size="11">rep 4</text><line x1="450.0" y1="248" x2="230.0" y2="248" stroke="#8892a0" stroke-width="2"/><circle cx="450.0" cy="248" r="5" fill="white" stroke="#6b7280" stroke-width="2"/><rect x="230.0" y="248" width="10" height="10" transform="translate(-5,-5)" fill="#287d8e"/><text x="585" y="32" font-size="11" fill="#6b7280">○ baseline</text><text x="585" y="50" font-size="11" fill="#287d8e">■ qualified</text></g></svg>
